<svg width="16" height="16" viewBox="0 0 16 16" fill="none" xmlns="http://www.w3.org/2000/svg">
<g clip-path="url(#clip0_156_259)">
<path d="M8.00004 10.6667V14M10.6667 9.33333V14M13.3334 6.66667V14M14.6667 2L8.90271 7.764C8.87174 7.79504 8.83496 7.81967 8.79446 7.83647C8.75397 7.85328 8.71055 7.86193 8.66671 7.86193C8.62286 7.86193 8.57945 7.85328 8.53895 7.83647C8.49845 7.81967 8.46167 7.79504 8.43071 7.764L6.23604 5.56933C6.17353 5.50684 6.08876 5.47174 6.00037 5.47174C5.91199 5.47174 5.82722 5.50684 5.76471 5.56933L1.33337 10M2.66671 12V14M5.33337 9.33333V14" stroke="#FAFAFA" stroke-width="2" stroke-linecap="round" stroke-linejoin="round"/>
</g>
<defs>
<clipPath id="clip0_156_259">
<rect width="16" height="16" fill="white"/>
</clipPath>
</defs>
</svg>
